<svg xmlns="http://www.w3.org/2000/svg" xmlns:xlink="http://www.w3.org/1999/xlink" width="500" zoomAndPan="magnify" viewBox="0 0 375 374.999991" height="500" preserveAspectRatio="xMidYMid meet" version="1.0"><defs><clipPath id="b2b2382acf"><path d="M 120 170 L 263 170 L 263 256.332031 L 120 256.332031 Z M 120 170 " clip-rule="nonzero"/></clipPath><clipPath id="975e8fecce"><path d="M 125 177 L 253 177 L 253 256.332031 L 125 256.332031 Z M 125 177 " clip-rule="nonzero"/></clipPath></defs><rect x="-37.5" width="450" fill="#ffffff" y="-37.499999" height="449.999989" fill-opacity="1"/><rect x="-37.5" width="450" fill="#fdf0ff" y="-37.499999" height="449.999989" fill-opacity="1"/><path fill="#5e0094" d="M 193.441406 128.746094 C 184.800781 120.503906 173.132812 116.359375 162.996094 123.832031 C 162.832031 124.308594 162.726562 124.785156 162.613281 125.273438 C 153.8125 161.546875 135.640625 227.339844 109.234375 252.753906 C 130.984375 260.074219 145.300781 251.03125 154.097656 236.277344 C 157.042969 230.644531 160.066406 222.167969 162.894531 214.863281 C 172.425781 188.828125 185.199219 154.5625 193.441406 128.746094 Z M 193.441406 128.746094 " fill-opacity="1" fill-rule="nonzero"/><path fill="#7d00ae" d="M 162.996094 123.832031 C 162.984375 123.832031 162.984375 123.832031 162.996094 123.832031 C 162.816406 124.308594 163.304688 124.835938 163.140625 125.3125 C 150.226562 160.261719 135.921875 226.425781 109.21875 252.769531 C 126.238281 257.320312 142.84375 247.171875 150.699219 232.417969 C 156.835938 223.082031 186.804688 128.257812 188.207031 124.425781 C 188.195312 124.414062 169.289062 118.945312 162.996094 123.832031 Z M 162.996094 123.832031 " fill-opacity="1" fill-rule="nonzero"/><path fill="#9c00c9" d="M 162.996094 123.832031 C 162.996094 123.832031 163.742188 124.796875 163.730469 124.796875 C 163.730469 124.796875 163.035156 123.847656 163.035156 123.847656 C 162.867188 124.324219 163.179688 125.199219 163.152344 125.699219 C 161.699219 153.636719 152.191406 217.382812 109.21875 252.753906 C 126.894531 256.253906 143.808594 237.679688 153.828125 215.75 C 164.246094 190.746094 175.101562 148.441406 183.140625 123.332031 C 183.039062 123.304688 167.382812 120.476562 162.996094 123.832031 Z M 162.996094 123.832031 " fill-opacity="1" fill-rule="nonzero"/><path fill="#d900fd" d="M 169.199219 121.082031 C 165.671875 121.851562 164.566406 122.753906 162.996094 123.820312 C 158.496094 136.3125 154.109375 150.652344 150.03125 163.578125 C 139.804688 193.316406 131.175781 229.152344 109.234375 252.742188 C 137.414062 244.316406 169.289062 121.070312 169.199219 121.082031 Z M 169.199219 121.082031 " fill-opacity="1" fill-rule="nonzero"/><path fill="#ba00e3" d="M 169.144531 121.300781 C 168.566406 124.617188 135.832031 243.726562 109.347656 252.730469 C 152.488281 241.488281 166.78125 151.410156 176.746094 121.042969 C 176.296875 122.417969 172.851562 120.554688 169.144531 121.300781 Z M 169.144531 121.300781 " fill-opacity="1" fill-rule="nonzero"/><path fill="#5e0094" d="M 189.351562 141.367188 C 189.351562 141.367188 189.339844 141.390625 189.328125 141.441406 C 189.300781 141.519531 189.25 141.660156 189.1875 141.855469 C 188.453125 143.964844 185.46875 152.492188 183.050781 158.972656 C 181.867188 120.324219 162.996094 123.820312 162.996094 123.820312 C 163.203125 123.679688 163.394531 123.539062 163.589844 123.398438 C 164.207031 122.972656 164.796875 122.613281 165.363281 122.304688 C 167.539062 121.082031 169.210938 120.605469 169.582031 120.503906 C 169.597656 120.503906 169.621094 120.488281 169.621094 120.488281 C 169.632812 120.488281 169.648438 120.476562 169.660156 120.476562 L 175.050781 122.175781 L 176.195312 122.535156 L 178.316406 124.207031 L 182.613281 127.601562 L 186.859375 130.945312 L 187.167969 132.246094 Z M 189.351562 141.367188 " fill-opacity="0.8" fill-rule="nonzero"/><path fill="#9c00c9" d="M 162.996094 123.820312 C 163.011719 123.808594 163.0625 123.769531 163.164062 123.71875 C 163.101562 123.757812 163.050781 123.796875 162.996094 123.820312 Z M 162.996094 123.820312 " fill-opacity="1" fill-rule="nonzero"/><path fill="#ba00e3" d="M 269.421875 148.042969 C 248.277344 184.648438 209.007812 210.679688 162.855469 214.863281 C 161.003906 219.96875 158.972656 225.269531 156.722656 230.476562 C 198.332031 228.496094 255.042969 195.53125 269.421875 148.042969 C 269.449219 147.988281 269.421875 148.042969 269.421875 148.042969 Z M 269.421875 148.042969 " fill-opacity="1" fill-rule="nonzero"/><path fill="#9c00c9" d="M 269.421875 148.042969 C 248.277344 184.648438 209.007812 210.679688 162.855469 214.863281 C 161.003906 219.96875 160.953125 219.902344 159.085938 224.84375 C 200.699219 222.863281 248.625 195.722656 269.421875 148.042969 C 269.449219 147.988281 269.421875 148.042969 269.421875 148.042969 Z M 269.421875 148.042969 " fill-opacity="1" fill-rule="nonzero"/><path fill="#7d00ae" d="M 162.703125 214.914062 C 160.851562 220.019531 161.96875 217.332031 160.398438 221.371094 C 202.007812 219.390625 247.59375 192.132812 269.421875 148.042969 C 248.277344 184.648438 208.867188 210.734375 162.703125 214.914062 Z M 162.703125 214.914062 " fill-opacity="1" fill-rule="nonzero"/><path fill="#5e0094" d="M 239.851562 183.078125 C 238.449219 184.25 237.019531 185.394531 235.566406 186.511719 C 225.613281 194.179688 214.5 200.546875 202.511719 205.34375 C 201.816406 205.625 201.121094 205.898438 200.425781 206.167969 C 197.996094 207.09375 195.527344 207.96875 193.03125 208.765625 C 192.632812 208.894531 192.234375 209.007812 191.847656 209.136719 C 183.101562 211.851562 173.957031 213.742188 164.527344 214.71875 C 163.988281 214.773438 163.449219 214.835938 162.90625 214.875 C 162.816406 214.886719 162.742188 214.886719 162.652344 214.902344 C 162.136719 216.328125 161.6875 216.84375 161.25 216.957031 L 161.25 218.398438 C 161.363281 218.386719 161.46875 218.386719 161.582031 218.375 C 162.664062 218.285156 163.757812 218.179688 164.835938 218.066406 C 174.523438 217.011719 184.476562 214.785156 194.28125 211.425781 C 194.601562 211.3125 194.933594 211.207031 195.257812 211.09375 C 197.726562 210.230469 200.183594 209.292969 202.628906 208.277344 C 203.449219 207.941406 204.273438 207.582031 205.082031 207.234375 C 216.015625 202.476562 226.578125 196.261719 236.160156 188.660156 C 237.792969 187.375 239.386719 186.035156 240.957031 184.660156 C 252.480469 174.589844 262.359375 162.355469 269.421875 148.078125 C 261.78125 161.277344 251.734375 173.136719 239.851562 183.078125 Z M 239.851562 183.078125 " fill-opacity="1" fill-rule="nonzero"/><path fill="#d900fd" d="M 269.421875 148.042969 C 264.355469 165.226562 255.761719 180.492188 244.648438 193.292969 C 243.53125 194.578125 242.386719 195.851562 241.214844 197.085938 C 240.929688 197.382812 240.660156 197.675781 240.378906 197.960938 C 239.621094 198.757812 238.835938 199.53125 238.0625 200.300781 C 231.902344 206.371094 225.109375 211.761719 217.855469 216.417969 C 216.542969 217.265625 215.207031 218.078125 213.855469 218.875 C 210.292969 220.972656 206.640625 222.902344 202.882812 224.636719 C 202.535156 224.792969 202.203125 224.957031 201.855469 225.113281 C 189.339844 230.785156 175.847656 234.453125 161.917969 235.828125 C 159.304688 236.085938 156.695312 236.253906 154.058594 236.34375 C 154.070312 236.316406 154.085938 236.277344 154.097656 236.253906 C 155.011719 234.335938 155.886719 232.40625 156.722656 230.453125 C 156.746094 230.453125 156.757812 230.453125 156.785156 230.453125 C 159.0625 230.347656 161.390625 230.140625 163.742188 229.847656 C 175.28125 228.417969 187.667969 224.832031 199.824219 219.402344 C 200.222656 219.222656 200.621094 219.042969 201.019531 218.863281 C 203.847656 217.574219 206.652344 216.1875 209.429688 214.695312 C 210.574219 214.078125 211.722656 213.460938 212.851562 212.804688 C 221.046875 208.148438 228.917969 202.679688 236.121094 196.480469 C 236.726562 195.96875 237.332031 195.441406 237.921875 194.898438 C 238.5 194.386719 239.09375 193.859375 239.660156 193.316406 C 240.984375 192.09375 242.28125 190.847656 243.542969 189.574219 C 255.390625 177.714844 264.703125 163.667969 269.421875 148.042969 Z M 269.421875 148.042969 " fill-opacity="1" fill-rule="nonzero"/><path fill="#5e0094" d="M 241.214844 197.097656 C 240.929688 197.394531 240.378906 197.972656 240.378906 197.972656 C 239.621094 198.769531 238.835938 199.542969 238.0625 200.3125 C 237.882812 200.289062 237.765625 200.261719 237.765625 200.261719 L 236.121094 196.480469 L 234.140625 191.953125 L 234.4375 189.960938 L 234.859375 187.039062 L 234.859375 187.015625 C 234.859375 187.015625 234.859375 187.015625 234.875 187.027344 C 234.964844 187.089844 235.554688 187.503906 236.402344 188.417969 C 237.304688 189.40625 238.488281 190.976562 239.660156 193.328125 C 240.1875 194.398438 240.714844 195.644531 241.214844 197.058594 C 241.214844 197.074219 241.214844 197.085938 241.214844 197.097656 Z M 241.214844 197.097656 " fill-opacity="0.8" fill-rule="nonzero"/><path fill="#d900fd" d="M 239.542969 200.160156 C 233.820312 189.921875 225.675781 175 216.632812 160.773438 C 215.695312 159.296875 214.742188 157.828125 213.777344 156.375 C 207.695312 147.140625 201.289062 138.457031 194.960938 131.871094 C 189.839844 126.546875 184.785156 122.585938 180 120.835938 C 178.445312 120.257812 176.914062 119.921875 175.4375 119.847656 C 175.527344 119.847656 175.617188 119.832031 175.707031 119.832031 C 184.851562 119.488281 191.589844 120.234375 197.070312 122.636719 C 198.265625 123.152344 199.386719 123.757812 200.480469 124.4375 C 206.523438 128.234375 211.089844 134.613281 216.183594 144.542969 C 226.152344 163.039062 233.019531 182.152344 239.542969 200.148438 C 239.542969 200.132812 239.542969 200.148438 239.542969 200.160156 Z M 239.542969 200.160156 " fill-opacity="1" fill-rule="nonzero"/><path fill="#9c00c9" d="M 162.996094 123.832031 C 163.011719 123.832031 163.011719 123.820312 163.023438 123.820312 C 163.011719 123.820312 162.996094 123.820312 162.996094 123.832031 Z M 162.996094 123.832031 " fill-opacity="1" fill-rule="nonzero"/><path fill="#9c00c9" d="M 258.578125 252.949219 L 258.515625 252.949219 C 240.289062 213.679688 214.5 168.441406 189.390625 134.792969 C 187.28125 132.375 185.121094 129.90625 182.613281 127.617188 C 177.855469 123.101562 170.652344 119.011719 164.386719 122.90625 C 204.3125 98.816406 244.878906 226.503906 258.578125 252.949219 Z M 258.578125 252.949219 " fill-opacity="1" fill-rule="nonzero"/><path fill="#7d00ae" d="M 258.515625 252.949219 L 258.488281 252.949219 C 258.296875 252.5625 258.101562 252.1875 257.898438 251.804688 C 250.230469 237.035156 239.542969 220.996094 226.707031 204.328125 C 219.386719 194.820312 211.375 185.097656 202.808594 175.296875 C 201.765625 172.59375 200.878906 170.304688 200.375 169.03125 C 197.933594 162.214844 194.910156 153.984375 192.335938 147.949219 C 192.09375 147.398438 191.859375 146.859375 191.628906 146.34375 C 191.398438 145.828125 191.179688 145.328125 190.949219 144.851562 C 185.675781 133.582031 179.847656 124.347656 173.351562 121.839844 C 173.390625 121.851562 173.417969 121.867188 173.453125 121.878906 C 188.402344 123.960938 206.71875 151.371094 223.167969 181.714844 C 228.453125 191.453125 233.535156 201.496094 238.269531 211.105469 C 246.398438 227.597656 253.433594 242.800781 258.515625 252.949219 Z M 258.515625 252.949219 " fill-opacity="1" fill-rule="nonzero"/><path fill="#ba00e3" d="M 258.628906 252.949219 L 258.578125 252.949219 C 254.117188 243.300781 248.261719 228.84375 241.433594 212.945312 C 238.4375 205.988281 235.257812 198.757812 231.929688 191.542969 C 231.476562 190.566406 231.027344 189.601562 230.578125 188.621094 C 225.304688 177.378906 219.667969 166.265625 213.777344 156.351562 C 207.785156 146.253906 201.535156 137.417969 195.167969 130.945312 C 188.839844 124.527344 182.394531 120.464844 175.949219 119.832031 C 175.875 119.820312 175.796875 119.820312 175.707031 119.808594 C 175.796875 119.820312 175.898438 119.820312 175.988281 119.832031 C 176.980469 119.921875 177.945312 120.039062 178.894531 120.179688 C 178.910156 120.179688 178.910156 120.179688 178.910156 120.179688 C 185.402344 121.171875 191.0625 123.523438 196.078125 126.90625 C 217.625 141.417969 227.21875 174.820312 239.53125 200.121094 C 239.683594 200.457031 239.851562 200.777344 240.019531 201.113281 C 240.148438 201.460938 240.261719 201.804688 240.390625 202.152344 C 240.75 203.183594 241.125 204.210938 241.484375 205.253906 C 241.960938 206.628906 242.449219 208.007812 242.925781 209.40625 C 242.964844 209.5 242.988281 209.601562 243.027344 209.691406 C 248.339844 225.0625 253.640625 241.320312 258.628906 252.949219 Z M 258.628906 252.949219 " fill-opacity="1" fill-rule="nonzero"/><path fill="#5e0094" d="M 244.097656 214.5 C 243.246094 214 242.359375 213.484375 241.445312 212.945312 C 231.914062 207.363281 219.386719 200.019531 210.382812 194.757812 C 210.371094 194.71875 205.019531 180.980469 202.820312 175.296875 C 214.085938 179.257812 224.363281 184.3125 231.929688 191.542969 C 235.992188 195.425781 239.273438 199.953125 241.484375 205.265625 C 241.960938 206.644531 242.449219 208.019531 242.925781 209.421875 C 242.964844 209.511719 242.988281 209.613281 243.027344 209.703125 C 243.476562 211.246094 243.824219 212.84375 244.097656 214.5 Z M 244.097656 214.5 " fill-opacity="0.6" fill-rule="nonzero"/><path fill="#5e0094" d="M 257.910156 251.816406 C 250.242188 237.050781 239.554688 221.011719 226.71875 204.339844 C 219.398438 194.835938 211.386719 185.109375 202.820312 175.308594 C 201.777344 172.609375 200.890625 170.320312 200.390625 169.046875 C 197.945312 162.226562 194.921875 153.996094 192.351562 147.964844 C 192.105469 147.410156 191.875 146.871094 191.640625 146.355469 C 195.886719 148.144531 204.542969 160.082031 214.332031 175.554688 C 220.761719 185.714844 227.695312 197.40625 234.203125 208.738281 C 244.261719 226.230469 253.292969 242.902344 257.910156 251.816406 Z M 257.910156 251.816406 " fill-opacity="1" fill-rule="nonzero"/><path fill="#5e0094" d="M 217.84375 216.445312 C 212.722656 219.710938 207.375 222.683594 201.816406 225.152344 C 200.542969 218.9375 197.738281 211.800781 193.660156 208.597656 C 197.277344 207.480469 199 206.757812 202.511719 205.34375 C 206.730469 208.390625 213.625 213.382812 217.84375 216.445312 Z M 217.84375 216.445312 " fill-opacity="0.8" fill-rule="nonzero"/><path fill="#d900fd" d="M 264.648438 250.078125 C 264.648438 250.078125 264.648438 250.066406 264.636719 250.066406 C 263.042969 246.902344 260.675781 243.402344 258.089844 239.582031 C 238.796875 211.015625 193.917969 167.863281 149.234375 166.691406 C 112.113281 166.035156 103.636719 199.402344 124.398438 220.058594 C 125.605469 221.265625 126.917969 222.425781 128.320312 223.53125 C 127.933594 224.40625 126.710938 226.992188 125.914062 228.417969 C 123.984375 227.234375 122.199219 225.960938 120.550781 224.625 C 89.886719 199.785156 108.652344 152.222656 152.191406 156.621094 C 200.105469 160.261719 256.574219 212.328125 264.648438 250.078125 Z M 264.648438 250.078125 " fill-opacity="1" fill-rule="nonzero"/><g clip-path="url(#b2b2382acf)"><path fill="#9c00c9" d="M 262.886719 251.714844 C 259.992188 254.144531 256.316406 255.777344 252.570312 256.007812 C 249.035156 249.539062 244.867188 243.171875 240.390625 237.203125 C 231.015625 224.726562 220.042969 213.371094 207.9375 203.53125 C 189.417969 188.777344 143.445312 168.800781 128.695312 186.203125 C 123.855469 193.78125 125.644531 205.40625 133.605469 211.441406 C 132.71875 213.679688 132 215.195312 131.125 217.175781 C 117.914062 206.242188 114.390625 183.167969 133.902344 174.589844 C 182.355469 154.136719 246.140625 225.359375 258.695312 253.191406 C 258.734375 253.179688 262.847656 251.726562 262.886719 251.714844 Z M 262.886719 251.714844 " fill-opacity="1" fill-rule="nonzero"/></g><g clip-path="url(#975e8fecce)"><path fill="#5e0094" d="M 252.558594 255.996094 C 244.199219 256.5625 235.863281 250.929688 231 242.964844 C 218.742188 224.972656 174.238281 181.394531 143.203125 184.660156 C 132.707031 186.152344 125.824219 198.101562 135.382812 206.925781 C 135.277344 207.183594 133.929688 210.65625 133.492188 211.773438 C 124.292969 205.023438 122.867188 193.253906 128.695312 186.21875 C 146.300781 164.683594 190.730469 189.253906 207.914062 203.53125 C 220.015625 213.371094 231 224.726562 240.367188 237.203125 C 244.855469 243.160156 249.023438 249.527344 252.558594 255.996094 Z M 252.558594 255.996094 " fill-opacity="1" fill-rule="nonzero"/></g><path fill="#ba00e3" d="M 264.648438 250.078125 C 263.300781 251.90625 260.972656 253.488281 259.015625 254.234375 C 246.460938 228.625 198.023438 171.757812 151.5 171.785156 C 135.988281 171.796875 121.335938 179 120.488281 193.691406 C 119.871094 201.523438 123.457031 208.945312 128.371094 214.410156 C 129.257812 215.402344 130.199219 216.328125 131.148438 217.175781 C 131.175781 217.203125 131.203125 217.230469 131.226562 217.242188 C 129.695312 220.753906 128.359375 223.542969 128.347656 223.542969 C 126.90625 222.605469 125.527344 221.523438 124.230469 220.316406 C 118.222656 214.746094 113.890625 206.515625 113.285156 197.910156 C 111.726562 175.863281 129.875 165.40625 149.761719 164.453125 C 199.386719 162.101562 241.136719 212.894531 258.375 239.519531 C 261.113281 243.738281 263.222656 247.351562 264.664062 250.054688 C 264.648438 250.066406 264.648438 250.078125 264.648438 250.078125 Z M 264.648438 250.078125 " fill-opacity="1" fill-rule="nonzero"/><path fill="#5e0094" d="M 167.617188 202.140625 C 167.617188 202.140625 157.210938 189.292969 141.992188 188.042969 C 143.136719 184.363281 143.882812 182.550781 143.882812 182.550781 L 163.113281 184.957031 L 172.671875 188.3125 Z M 167.617188 202.140625 " fill-opacity="0.8" fill-rule="nonzero"/><path fill="#5e0094" d="M 163.730469 229.871094 C 163.292969 231.828125 162.703125 233.847656 161.90625 235.851562 C 159.292969 236.109375 156.683594 236.277344 154.046875 236.378906 C 154.058594 236.355469 154.070312 236.316406 154.085938 236.289062 C 153.839844 236.703125 153.582031 237.101562 153.339844 237.511719 C 156.335938 228.777344 158.523438 220.394531 159.140625 211.414062 L 163.242188 213.9375 C 163.125 214.246094 163.011719 214.566406 162.882812 214.875 C 163.421875 214.824219 163.960938 214.773438 164.503906 214.71875 L 164.59375 214.773438 C 165.03125 218.683594 165.003906 224.046875 163.730469 229.871094 Z M 163.730469 229.871094 " fill-opacity="0.6" fill-rule="nonzero"/><path fill="#d900fd" d="M 191.640625 146.34375 C 181.019531 123.910156 166.933594 120.992188 162.984375 123.832031 C 164.21875 122.5625 167.382812 121.003906 169.648438 120.503906 C 179.617188 118.355469 190.949219 119.757812 197.070312 122.625 C 195.140625 122.304688 193.210938 122.25 191.628906 122.289062 C 189.351562 122.355469 187.078125 122.136719 184.851562 121.609375 C 183.746094 121.351562 182.496094 121.144531 181.328125 121.171875 C 176.363281 121.273438 175.035156 122.1875 175.035156 122.1875 C 175.035156 122.1875 182.894531 126.5625 191.640625 146.34375 Z M 191.640625 146.34375 " fill-opacity="1" fill-rule="nonzero"/><path fill="#5e0094" d="M 135.394531 206.925781 C 135.292969 207.183594 133.941406 210.65625 133.503906 211.773438 C 132.628906 213.960938 132 215.246094 131.164062 217.175781 C 131.1875 217.203125 131.214844 217.230469 131.238281 217.242188 C 129.710938 220.753906 128.371094 223.542969 128.359375 223.542969 C 127.972656 224.417969 126.75 227.003906 125.953125 228.433594 C 124.023438 227.25 122.238281 225.976562 120.589844 224.636719 C 120.5625 224.625 120.550781 224.597656 120.550781 224.597656 C 120.550781 224.597656 123.097656 221.78125 124.242188 220.316406 C 124.308594 220.238281 124.371094 220.148438 124.4375 220.070312 C 125.875 218.207031 127.1875 216.300781 128.332031 214.515625 C 128.359375 214.476562 128.371094 214.449219 128.398438 214.410156 C 129.476562 212.699219 130.417969 211.105469 131.203125 209.71875 C 131.277344 209.589844 131.34375 209.460938 131.421875 209.332031 C 132.769531 206.875 133.515625 205.253906 133.632812 205.023438 C 134.09375 205.664062 134.726562 206.257812 135.394531 206.925781 Z M 135.394531 206.925781 " fill-opacity="0.6" fill-rule="nonzero"/><path fill="#d900fd" d="M 192.492188 124.578125 L 190.664062 123.667969 C 191.746094 124.167969 192.402344 124.527344 192.492188 124.578125 Z M 192.492188 124.578125 " fill-opacity="1" fill-rule="nonzero"/></svg>