<svg xmlns="http://www.w3.org/2000/svg" viewBox="0 0 24 24">
  <path d="M12 1.27a11 11 0 00-3.48 21.46c.55.09.73-.24.73-.53v-1.85c-3.03.66-3.67-1.45-3.67-1.45-.5-1.26-1.21-1.59-1.21-1.59-.98-.67.08-.66.08-.66 1.09.08 1.66 1.11 1.66 1.11.96 1.65 2.53 1.17 3.15.89.1-.7.38-1.17.69-1.44-2.42-.28-4.96-1.21-4.96-5.4 0-1.19.42-2.17 1.11-2.93-.11-.27-.48-1.36.11-2.84 0 0 .91-.29 2.98 1.1.86-.24 1.79-.36 2.71-.37.92.01 1.85.13 2.71.37 2.07-1.39 2.98-1.1 2.98-1.1.59 1.48.22 2.57.11 2.84.69.76 1.11 1.74 1.11 2.93 0 4.2-2.55 5.12-4.98 5.39.39.34.73 1 .73 2.02v3c0 .29.18.63.74.52A11 11 0 0012 1.27"></path>
</svg> 